HIERARCHY
ROOT Hips
{
	OFFSET 0.000000 0.000000 0.000000 
	CHANNELS 6 Xposition Yposition Zposition Zrotation Yrotation Xrotation
	JOINT LeftUpLeg
	{
		OFFSET 1.363060 -1.794630 0.839290 
		CHANNELS 3 Zrotation Yrotation Xrotation
		JOINT LeftLeg
		{
			OFFSET 2.448110 -6.726130 0.000000 
			CHANNELS 3 Zrotation Yrotation Xrotation
			JOINT LeftFoot
			{
				OFFSET 2.562200 -7.039590 0.000000 
				CHANNELS 3 Zrotation Yrotation Xrotation
				JOINT LeftToeBase
				{
					OFFSET 0.157640 -0.433110 2.322550 
					CHANNELS 3 Zrotation Yrotation Xrotation
					End Site
					{
						OFFSET 0.000000 0.000000 0.000000 
					}
				}
			}
		}
	}
	JOINT RightUpLeg
	{
		OFFSET -1.305520 -1.794630 0.839290 
		CHANNELS 3 Zrotation Yrotation Xrotation
		JOINT RightLeg
		{
			OFFSET -2.542530 -6.985550 0.000000 
			CHANNELS 3 Zrotation Yrotation Xrotation
			JOINT RightFoot
			{
				OFFSET -2.568260 -7.056230 0.000000 
				CHANNELS 3 Zrotation Yrotation Xrotation
				JOINT RightToeBase
				{
					OFFSET -0.164730 -0.452590 2.363150 
					CHANNELS 3 Zrotation Yrotation Xrotation
					End Site
					{
						OFFSET 0.000000 0.000000 0.000000 
					}
				}
			}
		}
	}
	JOINT Spine
	{
		OFFSET 0.028270 2.035590 -0.193380 
		CHANNELS 3 Zrotation Yrotation Xrotation
		JOINT Spine1
		{
			OFFSET 0.056720 2.048850 -0.042750 
			CHANNELS 3 Zrotation Yrotation Xrotation
			JOINT Neck1
			{
				OFFSET -0.054170 1.746240 0.172020 
				CHANNELS 3 Zrotation Yrotation Xrotation
				JOINT Head
				{
					OFFSET 0.104070 1.761360 -0.123970 
					CHANNELS 3 Zrotation Yrotation Xrotation
					End Site
					{
						OFFSET 0.000000 0.000000 0.000000 
					}
				}
			}
			JOINT LeftArm
			{
				OFFSET 3.362410 1.200890 -0.311210 
				CHANNELS 3 Zrotation Yrotation Xrotation
				JOINT LeftForeArm
				{
					OFFSET 4.983000 -0.000000 -0.000000 
					CHANNELS 3 Zrotation Yrotation Xrotation
					JOINT LeftHand
					{
						OFFSET 3.483560 -0.000000 -0.000000 
						CHANNELS 3 Zrotation Yrotation Xrotation
						JOINT LeftHandIndex1
						{
							OFFSET 0.715260 -0.000000 -0.000000 
							CHANNELS 3 Zrotation Yrotation Xrotation
							End Site
							{
								OFFSET 0.000000 0.000000 0.000000 
							}
						}
					}
				}
			}
			JOINT RightArm
			{
				OFFSET -3.136600 1.374050 -0.404650 
				CHANNELS 3 Zrotation Yrotation Xrotation
				JOINT RightForeArm
				{
					OFFSET -5.241900 -0.000000 -0.000000 
					CHANNELS 3 Zrotation Yrotation Xrotation
					JOINT RightHand
					{
						OFFSET -3.444170 -0.000000 -0.000000 
						CHANNELS 3 Zrotation Yrotation Xrotation
						JOINT RightHandIndex1
						{
							OFFSET -0.622530 -0.000000 -0.000000 
							CHANNELS 3 Zrotation Yrotation Xrotation
							End Site
							{
								OFFSET 0.000000 0.000000 0.000000 
							}
						}
					}
				}
			}
		}
	}
}
MOTION
Frames: 13
Frame Time: 0.041667
10.537033 14.715464 23.863264 -179.595889 -0.128569 -134.699637 -3.580641 -22.674218 -84.513782 14.440642 26.012779 76.905828 3.571856 -4.641884 -37.236724 3.950600 -12.094400 -36.066900 6.119233 28.201136 -85.843665 -13.370535 -26.801132 75.113514 -4.744989 1.856585 -41.199655 -2.735500 10.254100 -29.803500 1.388398 -1.202046 -5.087349 0.324113 -0.778781 4.901590 0.039595 -10.001800 -2.240221 -3.433300 -4.803300 -3.149500 -92.226624 14.150237 34.792023 18.437267 -24.332055 -5.388279 -1.960933 0.932361 0.952144 -7.125000 0.000000 0.000000 91.416206 -17.125338 6.852706 -12.257639 23.245346 -3.427970 1.171946 3.759436 4.151014 7.125000 0.000000 0.000000 
10.538894 14.546697 23.877720 -179.469285 0.153819 -134.634968 -3.475100 -22.323702 -85.687370 15.194520 26.168398 78.862221 3.792166 -4.701537 -38.127827 3.545600 -11.529900 -34.088400 5.736176 28.416783 -87.245963 -14.183616 -27.031115 77.199661 -4.881142 1.462190 -41.713982 -2.936000 10.590700 -30.911500 1.400595 -1.108100 -5.022958 0.437637 -0.729886 4.899691 0.007318 -9.886314 -2.623873 -3.446500 -4.735400 -3.257300 -92.529962 13.630366 34.183027 18.416562 -24.280011 -5.357545 -2.000321 0.938979 0.634774 -7.125000 0.000000 0.000000 91.338290 -17.038730 7.219916 -12.385337 23.398452 -3.481594 1.146253 3.747901 3.758176 7.125000 0.000000 0.000000 
10.541523 14.379792 23.891081 -179.313775 0.453531 -134.615840 -3.368668 -21.917324 -86.764884 15.927513 26.270270 80.790154 3.867385 -5.725158 -38.714365 2.990100 -10.679000 -31.204600 5.554631 28.622915 -88.261396 -14.737387 -27.172115 78.615426 -4.957962 1.210733 -41.989348 -3.083800 10.829600 -31.707200 1.364937 -0.940704 -4.958872 0.388508 -0.644935 4.843691 -0.017878 -9.779623 -2.880688 -3.449400 -4.674400 -3.350200 -92.631347 12.952035 33.699245 18.277822 -24.057995 -5.254879 -2.040986 0.954270 0.437032 -7.125000 0.000000 0.000000 91.560243 -16.892511 7.381839 -12.514354 23.560862 -3.538660 1.144255 3.735473 3.527831 7.125000 0.000000 0.000000 
10.544151 14.215296 23.923717 -179.231415 0.655062 -134.148518 -2.952292 -21.597920 -88.523268 16.736467 26.366020 82.911395 3.901332 -6.719965 -39.113302 2.450300 -9.747000 -28.161400 5.045015 28.647803 -89.868609 -15.346082 -27.312190 80.151461 -5.103345 1.198640 -42.470606 -3.062200 10.795100 -31.592000 1.328845 -0.825861 -5.012333 0.286283 -0.579448 4.520338 0.069660 -9.768356 -2.935721 -3.405300 -4.672700 -3.381300 -92.858458 12.407379 32.985993 18.164353 -23.855369 -5.166056 -2.069241 0.973541 0.543530 -7.125000 0.000000 0.000000 91.795070 -16.837669 7.771799 -12.686309 23.776205 -3.616411 1.141288 3.727363 3.172118 7.125000 0.000000 0.000000 
10.531447 14.082232 23.887467 -178.862362 1.234234 -135.856612 -3.664188 -21.216390 -87.049819 17.149336 26.362007 83.994077 3.923226 -7.304220 -39.315514 2.185100 -9.241400 -26.553300 5.974825 29.354814 -88.210479 -15.670467 -27.343124 80.962295 -5.205548 1.118283 -42.831789 -2.950300 10.614200 -30.989400 1.245654 -0.459126 -4.816824 0.080032 -0.337654 3.933710 0.133127 -9.863016 -3.244600 -3.406100 -4.726400 -3.479000 -93.185005 11.937443 32.155231 18.085567 -23.681185 -5.095361 -2.090539 1.005866 0.771466 -7.125000 0.000000 0.000000 91.953100 -16.821900 8.511503 -12.858262 23.985489 -3.698732 1.161287 3.730983 2.706638 7.125000 0.000000 0.000000 
10.531119 13.927593 23.909371 -178.986837 1.309220 -135.648880 -3.375715 -21.256700 -88.458777 17.871262 26.435570 85.860222 4.017766 -7.559805 -39.704637 2.341400 -9.543700 -27.511200 5.503128 29.160721 -89.465284 -16.331326 -27.445739 82.593248 -5.424514 1.740225 -43.385428 -2.912200 10.551600 -30.782000 1.207730 -0.473782 -4.860660 -0.070557 -0.332988 3.584819 0.154476 -9.892470 -3.482776 -3.423800 -4.750300 -3.572400 -93.547903 11.422040 31.050094 18.044494 -23.575529 -5.046948 -2.102187 1.036240 1.205441 -7.125000 0.000000 0.000000 92.215138 -16.469737 8.921156 -12.941595 24.061392 -3.736009 1.203011 3.718477 2.606430 7.125000 0.000000 0.000000 
10.524000 13.768464 23.921746 -179.042223 1.301531 -135.324321 -2.937263 -21.339714 -90.002717 18.591560 26.490077 87.712609 4.120070 -7.701989 -40.083658 2.646800 -10.100100 -29.301400 5.053665 28.865920 -91.111603 -17.186787 -27.568615 84.725058 -5.595720 1.423638 -43.989838 -2.979600 10.662000 -31.148300 1.180225 -0.491944 -4.882813 -0.291000 -0.333801 3.466069 0.222830 -9.898698 -3.650221 -3.369100 -4.747200 -3.673100 -93.971073 10.698202 29.759946 17.955484 -23.409832 -4.969395 -2.111797 1.074697 1.774943 -7.125000 0.000000 0.000000 92.454164 -15.938214 9.222416 -12.998599 24.099420 -3.755208 1.212692 3.660192 2.714330 7.125000 0.000000 0.000000 
10.514253 13.613277 23.933793 -179.051565 1.244812 -134.972225 -2.460322 -21.379691 -91.633302 19.328042 26.513040 89.619433 4.177148 -8.136905 -40.381019 2.660000 -10.123100 -29.376400 4.403351 28.575326 -93.283049 -18.442191 -27.668352 87.813071 -5.926475 1.955145 -44.851406 -2.913600 10.553900 -30.789700 1.169465 -0.520677 -4.938076 -0.501332 -0.337846 3.263323 0.244072 -9.848431 -3.667367 -3.308300 -4.710700 -3.704800 -94.385270 9.843159 28.593392 17.779635 -23.111017 -4.841735 -2.127346 1.134088 2.301787 -7.125000 0.000000 0.000000 92.578906 -15.373431 9.659591 -12.980785 24.028512 -3.737504 1.228442 3.590816 2.968274 7.125000 0.000000 0.000000 
10.505820 13.462252 23.947592 -179.009381 1.192409 -134.602328 -2.041197 -21.238376 -93.323468 20.125233 26.491699 91.706722 4.229601 -9.046866 -40.820331 2.432100 -9.713400 -28.053700 3.898010 28.469299 -94.760525 -19.051458 -27.699017 89.315048 -6.055784 2.019124 -45.200169 -2.962100 10.633400 -31.053200 1.150806 -0.546164 -5.005508 -0.745409 -0.344134 3.036594 0.300581 -9.813222 -3.584266 -3.260900 -4.693200 -3.659700 -94.716299 8.924664 27.606384 17.623525 -22.824593 -4.723836 -2.149801 1.174041 2.592145 -7.125000 0.000000 0.000000 92.726738 -14.567586 9.942448 -12.771915 23.690577 -3.633783 1.318197 3.505335 3.435324 7.125000 0.000000 0.000000 
10.501987 13.326012 23.968620 -179.108233 1.117104 -134.325388 -1.631103 -21.362018 -94.608139 20.634424 26.464501 93.071404 4.202419 -10.142095 -41.062539 1.999700 -8.865500 -25.375400 3.484495 28.143520 -96.031611 -19.682420 -27.703684 90.862667 -6.196741 2.280706 -45.520734 -2.906900 10.542800 -30.753100 1.118083 -0.597169 -5.047189 -0.960765 -0.367003 2.809982 0.339671 -9.764456 -3.652645 -3.243900 -4.672600 -3.676300 -94.949139 7.742618 26.828263 17.474246 -22.528924 -4.606755 -2.182467 1.177574 2.651127 -7.125000 0.000000 0.000000 92.970862 -13.532892 10.403959 -12.674034 23.485043 -3.579092 1.415201 3.399945 3.581778 7.125000 0.000000 0.000000 
10.500563 13.206090 23.982090 -179.281354 1.142817 -134.354481 -1.599006 -21.425376 -95.417589 21.118860 26.419034 94.388297 4.151609 -11.393189 -41.274861 1.446800 -7.603600 -21.516400 3.146313 27.897899 -96.835796 -20.293328 -27.688517 92.354746 -6.345381 2.433065 -45.904235 -2.894400 10.522100 -30.684600 1.073957 -0.590554 -5.039416 -1.087915 -0.362422 2.578386 0.312608 -9.673881 -3.914032 -3.248300 -4.625000 -3.827200 -95.196952 6.390693 26.063095 17.281069 -22.166411 -4.465770 -2.216799 1.167905 2.813351 -7.125000 0.000000 0.000000 93.283537 -12.520387 11.296682 -12.940883 23.768346 -3.689697 1.457992 3.324493 3.154971 7.125000 0.000000 0.000000 
10.500782 13.097996 23.991180 -179.367698 1.156880 -134.413565 -1.526557 -21.455037 -96.049512 21.561165 26.373458 95.570375 4.146455 -12.129216 -41.476304 1.216700 -6.996900 -19.706100 2.868721 27.776159 -97.483972 -21.198516 -27.623261 94.513240 -6.789893 3.711019 -46.982787 -2.547900 9.924400 -28.732400 1.059357 -0.559099 -5.027729 -1.112941 -0.350141 2.453129 0.586642 -10.037590 -4.191923 -3.216400 -4.828100 -3.911600 -95.490691 4.977943 25.417150 17.093646 -21.815798 -4.331339 -2.263530 1.173768 2.847156 -7.125000 0.000000 0.000000 93.461148 -11.419122 12.293755 -13.219619 24.075897 -3.817251 1.392029 3.443452 2.720774 7.125000 0.000000 0.000000 
10.503849 13.000635 24.000051 -179.350322 1.055214 -134.488816 -1.295591 -21.436514 -96.639239 21.968161 26.324087 96.648785 4.142597 -12.616074 -41.596002 1.116800 -6.713500 -18.869300 2.966265 27.745106 -98.049005 -21.283103 -27.652872 94.788312 -6.589050 1.803113 -46.796167 -3.280400 11.135700 -32.739000 1.078846 -0.559392 -5.072278 -1.070459 -0.348718 2.058000 0.482345 -9.921208 -4.262500 -3.293400 -4.779900 -3.892500 -95.828620 3.793997 25.044651 17.039986 -21.641610 -4.274814 -2.308482 1.198967 2.643972 -7.125000 0.000000 0.000000 93.478381 -10.337388 13.316755 -13.373436 24.197021 -3.885513 1.399427 3.497937 2.494590 7.125000 0.000000 0.000000 
